<svg width="18" height="18" viewBox="0 0 18 18" fill="none" xmlns="http://www.w3.org/2000/svg">
<g id="FilmReel">
<path id="Vector" d="M15.75 15.1875H12.8925C14.3826 14.2487 15.4836 12.8033 15.993 11.1174C16.5024 9.43139 16.3858 7.6182 15.6648 6.01132C14.9438 4.40444 13.6668 3.11195 12.0687 2.37162C10.4707 1.63128 8.65899 1.49289 6.96701 1.9819C5.27503 2.47092 3.81653 3.55444 2.8598 5.03316C1.90308 6.51187 1.51247 8.28633 1.75985 10.0301C2.00722 11.7739 2.87594 13.3697 4.20619 14.524C5.53644 15.6782 7.23875 16.3134 8.99998 16.3125H15.75C15.8992 16.3125 16.0422 16.2532 16.1477 16.1477C16.2532 16.0423 16.3125 15.8992 16.3125 15.75C16.3125 15.6008 16.2532 15.4577 16.1477 15.3522C16.0422 15.2468 15.8992 15.1875 15.75 15.1875ZM2.81248 8.99999C2.81248 7.77622 3.17537 6.57993 3.85526 5.5624C4.53515 4.54487 5.50151 3.7518 6.63213 3.28349C7.76274 2.81517 9.00684 2.69264 10.2071 2.93138C11.4074 3.17013 12.5099 3.75943 13.3752 4.62477C14.2405 5.49011 14.8298 6.59261 15.0686 7.79287C15.3073 8.99313 15.1848 10.2372 14.7165 11.3678C14.2482 12.4985 13.4551 13.4648 12.4376 14.1447C11.42 14.8246 10.2238 15.1875 8.99998 15.1875C7.35952 15.1856 5.78679 14.5331 4.62681 13.3732C3.46683 12.2132 2.81434 10.6404 2.81248 8.99999ZM8.99998 7.31249C9.33374 7.31249 9.66 7.21352 9.9375 7.0281C10.215 6.84267 10.4313 6.57912 10.559 6.27077C10.6868 5.96242 10.7202 5.62312 10.6551 5.29578C10.5899 4.96843 10.4292 4.66775 10.1932 4.43175C9.95722 4.19575 9.65654 4.03503 9.3292 3.96992C9.00185 3.9048 8.66255 3.93822 8.3542 4.06595C8.04585 4.19367 7.7823 4.40996 7.59688 4.68747C7.41145 4.96498 7.31248 5.29124 7.31248 5.62499C7.31248 6.07254 7.49027 6.50177 7.80674 6.81823C8.12321 7.1347 8.55243 7.31249 8.99998 7.31249ZM8.99998 5.06249C9.11123 5.06249 9.21999 5.09548 9.31249 5.15729C9.40499 5.2191 9.47709 5.30695 9.51966 5.40973C9.56224 5.51252 9.57338 5.62562 9.55167 5.73473C9.52997 5.84384 9.4764 5.94407 9.39773 6.02274C9.31906 6.10141 9.21883 6.15498 9.10972 6.17668C9.00061 6.19839 8.8875 6.18725 8.78472 6.14467C8.68194 6.1021 8.59409 6.03 8.53228 5.9375C8.47047 5.845 8.43748 5.73624 8.43748 5.62499C8.43748 5.47581 8.49674 5.33273 8.60223 5.22724C8.70772 5.12176 8.8508 5.06249 8.99998 5.06249ZM10.6875 12.375C10.6875 12.0412 10.5885 11.715 10.4031 11.4375C10.2177 11.16 9.95411 10.9437 9.64576 10.8159C9.33741 10.6882 8.99811 10.6548 8.67077 10.7199C8.34342 10.785 8.04274 10.9457 7.80674 11.1817C7.57074 11.4177 7.41002 11.7184 7.3449 12.0458C7.27979 12.3731 7.31321 12.7124 7.44093 13.0208C7.56866 13.3291 7.78495 13.5927 8.06246 13.7781C8.33996 13.9635 8.66622 14.0625 8.99998 14.0625C9.44753 14.0625 9.87676 13.8847 10.1932 13.5682C10.5097 13.2518 10.6875 12.8225 10.6875 12.375ZM8.43748 12.375C8.43748 12.2637 8.47047 12.155 8.53228 12.0625C8.59409 11.97 8.68194 11.8979 8.78472 11.8553C8.8875 11.8127 9.00061 11.8016 9.10972 11.8233C9.21883 11.845 9.31906 11.8986 9.39773 11.9772C9.4764 12.0559 9.52997 12.1561 9.55167 12.2653C9.57338 12.3744 9.56224 12.4875 9.51966 12.5903C9.47709 12.693 9.40499 12.7809 9.31249 12.8427C9.21999 12.9045 9.11123 12.9375 8.99998 12.9375C8.8508 12.9375 8.70772 12.8782 8.60223 12.7727C8.49674 12.6673 8.43748 12.5242 8.43748 12.375ZM12.375 10.6875C12.7087 10.6875 13.035 10.5885 13.3125 10.4031C13.59 10.2177 13.8063 9.95412 13.934 9.64577C14.0618 9.33742 14.0952 8.99812 14.0301 8.67078C13.9649 8.34343 13.8042 8.04275 13.5682 7.80675C13.3322 7.57075 13.0315 7.41003 12.7042 7.34492C12.3769 7.2798 12.0376 7.31322 11.7292 7.44094C11.4209 7.56867 11.1573 7.78496 10.9719 8.06247C10.7865 8.33997 10.6875 8.66624 10.6875 8.99999C10.6875 9.44754 10.8653 9.87677 11.1817 10.1932C11.4982 10.5097 11.9274 10.6875 12.375 10.6875ZM12.375 8.43749C12.4862 8.43749 12.595 8.47048 12.6875 8.53229C12.78 8.5941 12.8521 8.68195 12.8947 8.78473C12.9372 8.88752 12.9484 9.00062 12.9267 9.10973C12.905 9.21884 12.8514 9.31907 12.7727 9.39774C12.6941 9.47641 12.5938 9.52998 12.4847 9.55168C12.3756 9.57339 12.2625 9.56225 12.1597 9.51967C12.0569 9.4771 11.9691 9.405 11.9073 9.3125C11.8455 9.22 11.8125 9.11124 11.8125 8.99999C11.8125 8.85081 11.8717 8.70773 11.9772 8.60224C12.0827 8.49676 12.2258 8.43749 12.375 8.43749ZM5.62498 7.31249C5.29122 7.31249 4.96496 7.41146 4.68746 7.59689C4.40995 7.78231 4.19366 8.04586 4.06593 8.35421C3.93821 8.66256 3.90479 9.00186 3.96991 9.32921C4.03502 9.65655 4.19574 9.95723 4.43174 10.1932C4.66774 10.4292 4.96842 10.59 5.29577 10.6551C5.62311 10.7202 5.96241 10.6868 6.27076 10.559C6.57911 10.4313 6.84266 10.215 7.02809 9.93752C7.21351 9.66001 7.31248 9.33375 7.31248 8.99999C7.31248 8.55244 7.13469 8.12322 6.81822 7.80675C6.50176 7.49028 6.07253 7.31249 5.62498 7.31249ZM5.62498 9.56249C5.51373 9.56249 5.40497 9.5295 5.31247 9.46769C5.21997 9.40589 5.14787 9.31803 5.1053 9.21525C5.06272 9.11247 5.05158 8.99937 5.07329 8.89025C5.09499 8.78114 5.14857 8.68091 5.22723 8.60224C5.3059 8.52358 5.40613 8.47 5.51524 8.4483C5.62436 8.4266 5.73746 8.43774 5.84024 8.48031C5.94302 8.52288 6.03087 8.59498 6.09268 8.68748C6.15449 8.77999 6.18748 8.88874 6.18748 8.99999C6.18748 9.14918 6.12822 9.29225 6.02273 9.39774C5.91724 9.50323 5.77416 9.56249 5.62498 9.56249Z" fill="white"/>
</g>
</svg>
